<svg fill="none" height="36" viewBox="0 0 36 36" width="36" xmlns="http://www.w3.org/2000/svg"><g fill="#1967d2"><path d="M28.5 3h-8.805c-1.2 0-2.34.48-3.18 1.32L4.32 16.515a4.5 4.5 0 000 6.36l8.805 8.805c.885.885 2.04 1.32 3.18 1.32s2.31-.435 3.18-1.32L31.68 19.5A4.522 4.522 0 0033 16.32V7.5C33 5.01 30.99 3 28.5 3zM30 16.32c0 .405-.15.78-.435 1.065L17.37 29.565c-.375.39-.825.435-1.065.435s-.675-.06-1.065-.435L6.435 20.76C6.06 20.37 6 19.935 6 19.695s.06-.675.435-1.065L18.63 6.435A1.51 1.51 0 0119.695 6H28.5c.825 0 1.5.675 1.5 1.5z"/><path clip-rule="evenodd" d="M17.5 5L5 18v3l10.5 10.5c.833.167 2.8.1 4-1.5s8.5-9.333 12-13L31 5.5l-3.5-1zm7 9a2.5 2.5 0 100-5 2.5 2.5 0 000 5z" fill-rule="evenodd"/></g></svg>